<svg id="Layer_1" data-name="Layer 1" xmlns="http://www.w3.org/2000/svg" viewBox="0 0 7.5 5.75"><defs><style>.cls-1{fill:#101820;stroke:#b5bd00;stroke-miterlimit:10;stroke-width:0.05px;}</style></defs><rect class="cls-1" x="0.09" y="1.6" width="0.6" height="4.12"/><rect class="cls-1" x="6.78" y="1.6" width="0.6" height="4.12"/><polygon class="cls-1" points="3.58 0.08 0.89 1.63 0.9 1.64 0.9 5.69 3.58 5.69 3.58 1.64 3.58 1.64 3.58 0.08"/><polygon class="cls-1" points="3.9 0.09 3.9 1.64 3.9 1.64 3.9 5.69 6.57 5.69 6.57 1.64 6.57 1.64 6.58 1.63 3.9 0.09"/><polygon class="cls-1" points="6.78 1.47 7.38 1.47 7.44 1.13 6.72 1.13 6.78 1.47"/><polygon class="cls-1" points="0.09 1.47 0.69 1.47 0.75 1.13 0.03 1.13 0.09 1.47"/><path class="cls-1" d="M7.53,1.78s0-.06,0,.12a.21.21,0,0,0,.09.25s.06.07.16,0a.4.4,0,0,0,.17-.53h0c0,.19-.19.2-.21.12s.15-.12.09-.3a.42.42,0,0,0-.25-.26h0s.21.22-.09.43a.32.32,0,0,0-.09.47A.48.48,0,0,1,7.53,1.78Z" transform="translate(-0.47 -1.13)"/><path class="cls-1" d="M1.22,1.61c0,.19-.2.2-.21.12s.15-.12.09-.3a.42.42,0,0,0-.26-.26h0s.22.22-.08.43a.31.31,0,0,0-.09.47.48.48,0,0,1,.17-.29s0-.06,0,.12a.23.23,0,0,0,.08.25.13.13,0,0,0,.17,0,.4.4,0,0,0,.17-.53Z" transform="translate(-0.47 -1.13)"/></svg>