<svg id="Layer_1" data-name="Layer 1" xmlns="http://www.w3.org/2000/svg" viewBox="0 0 80.75 47.25"><defs><style>.cls-1,.cls-2{fill:#101820;}.cls-1{stroke:#b5bd00;stroke-miterlimit:10;stroke-width:0.75px;}</style></defs><path class="cls-1" d="M57.3,57.7a8.8,8.8,0,0,0,0-10.4L60,44.6a1.48,1.48,0,1,0-2.1-2.1l-2.7,2.7A9.48,9.48,0,0,0,50,43.5a8.75,8.75,0,0,0-5.2,1.7l-2.7-2.7A1.48,1.48,0,1,0,40,44.6l2.7,2.7A9.48,9.48,0,0,0,41,52.5a8.75,8.75,0,0,0,1.7,5.2L40,60.4a1.45,1.45,0,0,0,0,2.1,1.71,1.71,0,0,0,2.2,0l2.7-2.7c.2.2.5.3.7.5v1.2A1.54,1.54,0,0,0,47.1,63a1.45,1.45,0,0,0,.7-.2,1.56,1.56,0,0,0,1.3.7,1.28,1.28,0,0,0,1-.4,1.78,1.78,0,0,0,1,.4,1.71,1.71,0,0,0,1.3-.7,1.85,1.85,0,0,0,.7.2h.2a1.54,1.54,0,0,0,1.5-1.5V60.1c.1-.1.3-.2.4-.3l2.7,2.7a1.71,1.71,0,0,0,2.2,0,1.45,1.45,0,0,0,0-2.1ZM50,60.9a1.78,1.78,0,0,0-1-.4.9.9,0,0,0-.5.1V59.4a1.43,1.43,0,0,0-.6-1.2c-.1-.1-.2-.1-.3-.2a6,6,0,1,1,5-.1,1.42,1.42,0,0,0-.8.9.9.9,0,0,0-.1.5v1.3a.1.1,0,0,1-.1.1,1.85,1.85,0,0,0-.7-.2A1.22,1.22,0,0,0,50,60.9Z" transform="translate(-9.63 -31.33)"/><path class="cls-2" d="M51.5,55.7a1.69,1.69,0,0,0,1,.3,2,2,0,1,0-2-2v.4a1.09,1.09,0,0,0-.5-.1c-.1,0-.4,0-.5.1V54a2,2,0,1,0-2,2,1.69,1.69,0,0,0,1-.3v1.6a1.5,1.5,0,0,0,3,0V55.7Z" transform="translate(-9.63 -31.33)"/><path class="cls-1" d="M88.5,78.2h-77A1.54,1.54,0,0,1,10,76.7V33.2a1.54,1.54,0,0,1,1.5-1.5h77A1.54,1.54,0,0,1,90,33.2V76.7A1.47,1.47,0,0,1,88.5,78.2ZM13,75.2H87V34.8H13Z" transform="translate(-9.63 -31.33)"/><path class="cls-1" d="M29.5,55a20.09,20.09,0,0,1,6.8-15.2H19.5A1.54,1.54,0,0,0,18,41.3V68.8a1.54,1.54,0,0,0,1.5,1.5H36.3A20.47,20.47,0,0,1,29.5,55Z" transform="translate(-9.63 -31.33)"/><path class="cls-1" d="M80.5,39.8H63.7a20.39,20.39,0,0,1,0,30.4H80.5A1.54,1.54,0,0,0,82,68.7V41.2A1.45,1.45,0,0,0,80.5,39.8Z" transform="translate(-9.63 -31.33)"/></svg>