<svg id="Layer_1" data-name="Layer 1" xmlns="http://www.w3.org/2000/svg" viewBox="0 0 100 100"><defs><style>.cls-1{fill:none;}.cls-2{fill:#101820;stroke:#b5bd00;stroke-miterlimit:10;stroke-width:0.75px;}</style></defs><rect class="cls-1" width="100" height="100"/><path class="cls-2" d="M34.17,39.26a2.57,2.57,0,0,0,0-5.13H24.08a2.57,2.57,0,0,0,0,5.13,2.47,2.47,0,0,0,.86-.15L22,76H36.28l-3-36.84A2.47,2.47,0,0,0,34.17,39.26Z"/><path class="cls-2" d="M75.92,39.26a2.57,2.57,0,0,0,0-5.13H65.83a2.57,2.57,0,0,0,0,5.13,2.47,2.47,0,0,0,.86-.15L63.72,76H78l-3-36.84A2.47,2.47,0,0,0,75.92,39.26Z"/><polygon class="cls-2" points="77.27 24.92 50 14.9 22.73 24.92 18.89 24.92 18.89 32.98 81.11 32.98 81.11 24.92 77.27 24.92"/><polygon class="cls-2" points="86.73 81.07 86.73 77.04 13.27 77.04 13.27 81.07 11.04 81.07 11.04 85.1 88.96 85.1 88.96 81.07 86.73 81.07"/></svg>