<svg id="Layer_1" data-name="Layer 1" xmlns="http://www.w3.org/2000/svg" viewBox="0 0 38.5 48.4"><defs><style>.cls-1{fill:#101820;stroke:#b5bd00;stroke-miterlimit:10;stroke-width:0.5px;}</style></defs><path class="cls-1" d="M34.4,45.1H27V42.4a13.4,13.4,0,0,1-2,.1,13.4,13.4,0,0,1-2-.1v2.7H15.6a1.9,1.9,0,0,0,0,3.8H34.4a1.9,1.9,0,0,0,0-3.8Z" transform="translate(-5.75 -0.75)"/><circle class="cls-1" cx="19.25" cy="21.25" r="2.5"/><path class="cls-1" d="M12.4,14l9.5,5.6a2.34,2.34,0,0,1,.7-.7L17,9.4A14.43,14.43,0,0,0,12.4,14Z" transform="translate(-5.75 -0.75)"/><path class="cls-1" d="M17,34.7l5.6-9.5a2.34,2.34,0,0,1-.7-.7L12.4,30A13.78,13.78,0,0,0,17,34.7Z" transform="translate(-5.75 -0.75)"/><path class="cls-1" d="M28.3,36.6,25.5,26h-1L21.7,36.7a18.59,18.59,0,0,0,3.3.4A18.81,18.81,0,0,0,28.3,36.6Z" transform="translate(-5.75 -0.75)"/><path class="cls-1" d="M10,22a12.42,12.42,0,0,0,.4,3.3L21,22.5a1.7,1.7,0,0,1,0-1L10.3,18.7C10.2,19.8,10,20.9,10,22Z" transform="translate(-5.75 -0.75)"/><path class="cls-1" d="M27,9.5a2.08,2.08,0,0,1-4,0l-.7-2.2c-.2,0-.4.1-.6.1l2.8,10.7h1L28.3,7.4c-.2,0-.4-.1-.6-.1Z" transform="translate(-5.75 -0.75)"/><path class="cls-1" d="M37.6,30l-9.5-5.6a2.34,2.34,0,0,1-.7.7L33,34.6A12.68,12.68,0,0,0,37.6,30Z" transform="translate(-5.75 -0.75)"/><path class="cls-1" d="M28.8,3.4l-.6,1.9a17,17,0,1,1-6.5,0l-.6-1.9a19.05,19.05,0,1,0,7.7,0Z" transform="translate(-5.75 -0.75)"/><path class="cls-1" d="M33,9.4l-5.6,9.5a2.34,2.34,0,0,1,.7.7L37.6,14A14.43,14.43,0,0,0,33,9.4Z" transform="translate(-5.75 -0.75)"/><path class="cls-1" d="M40,22a12.42,12.42,0,0,0-.4-3.3L29,21.5v1l10.7,2.8A31.06,31.06,0,0,0,40,22Z" transform="translate(-5.75 -0.75)"/><path class="cls-1" d="M24.4,9.1a.56.56,0,0,0,1.1,0l2.2-7.3a.55.55,0,0,0-.5-.8H22.8a.64.64,0,0,0-.6.8Z" transform="translate(-5.75 -0.75)"/></svg>